# xmcd
#
# Track frame offsets:
#	150
#	15146
#	31574
#	47496
#	63223
#	81331
#	95193
#	110024
#	126395
#	142277
#	157994
#	175916
#
# Disc length: 2531 seconds
#
# Revision: 1
# Processed by: cddbd v1.5.2PL0 Copyright (c) Steve Scherf et al.
# Submitted via: audiograbber 1.83.01
#
DISCID=9909e10c
DTITLE=Chartbuster - cb20212
DYEAR=2008
DGENRE=Country
TTITLE0=Dean, Billy - Billy The Kid
TTITLE1=Dean, Billy - Only Here For A Little While
TTITLE2=Dean, Billy - If There Hadn't Been You
TTITLE3=Dean, Billy - Somewhere In My Broken Heart
TTITLE4=Dean, Billy - I Wanna Take Care Of You
TTITLE5=Dean, Billy - I'm Not Built That Way
TTITLE6=Dean, Billy - Billy The Kid (Vocal)
TTITLE7=Dean, Billy - Only Here For A Little While (Vocal)
TTITLE8=Dean, Billy - If There Hadn't Been You (Vocal)
TTITLE9=Dean, Billy - Somewhere In My Broken Heart (Vocal)
TTITLE10=Dean, Billy - I Wanna Take Care Of You (Vocal)
TTITLE11=Dean, Billy - I'm Not Built That Way (Vocal)
EXTD=
EXTT0=
EXTT1=
EXTT2=
EXTT3=
EXTT4=
EXTT5=
EXTT6=
EXTT7=
EXTT8=
EXTT9=
EXTT10=
EXTT11=
PLAYORDER=
